<?xml version="1.0" encoding="UTF-8"?>
<svg fill="currentColor" xmlns="http://www.w3.org/2000/svg" viewBox="0 0 158.99 132.57">
  <g>
    <g>
      <path d="m145.25,26.9h-47.19c-3.51,0-5.27-1.74-5.28-5.23v-8.12h66.21v119.02H13.58c-.11-1.02-.29-1.97-.29-2.92-.02-15.5.06-31-.08-46.51-.03-2.97.87-4.01,3.83-3.79,3.08.22,6.19.05,9.79.05v39.48h118.42V26.91h0Z"/>
      <path d="m13.2,39.64V13.31h13.17c0-3.57.12-6.78-.04-9.97-.12-2.4.67-3.43,3.16-3.33,3.34.13,6.7.03,10.42.03v12.89h13.04V.07c4.24,0,7.97-.16,11.66.13.76.06,1.9,1.73,1.98,2.72.25,3.31.09,6.65.09,10.34h13.06v26.19h13.45v8.92c0,5.12-.09,10.24.04,15.36.06,2.32-.81,3.09-3.06,3-3.35-.13-6.71-.03-10.44-.03v-13.13h-12.98v12.83h-13.75v-12.94h-12.85v13.02h-13.56v-12.9h-12.92c0,3.4-.09,6.75.03,10.08.08,2.21-.61,3.19-2.97,3.08-3.35-.15-6.71-.04-10.71-.04v-10.19C.02,51.76.08,47.02,0,42.27c-.03-1.92.68-2.71,2.62-2.66,3.36.08,6.72.02,10.56.02h.02Zm14-.35h12.3v-12.18h-12.3v12.18Zm26.4,0h12.22v-12.14h-12.22v12.14Z"/>
    </g>
  </g>
</svg>