<?xml version="1.0" encoding="UTF-8"?>
<svg fill="currentColor" xmlns="http://www.w3.org/2000/svg" viewBox="0 0 308.04 346.52">
  <g>
    <path d="m35.4,224.42c0-16.07-.04-31.88.01-47.7.05-16.64-.8-33.34,3.33-49.72,9.63-38.19,32.47-65.38,68.27-81.56,4.05-1.83,5.67-3.74,5.93-8.3C114.14,16.71,133.05-.07,154.22,0c21.15.07,39.71,17.02,41.02,37.5.19,3.01.13,5.42,3.84,7.1,48.1,21.78,72.33,59.48,73.49,112.01.47,21.49.08,42.99.09,64.49,0,1.13.17,2.26.27,3.51,2.35.4,4.47.68,6.55,1.14,18.42,4.05,30.29,20.42,28.36,39.04-1.8,17.44-16.94,31.17-35.16,31.39-19.83.23-39.66.17-59.49-.01-4.19-.04-5.98.84-6.66,5.5-3.77,25.84-26.49,44.96-52.71,44.86-25.98-.1-48.53-19.19-52.31-44.76-.67-4.52-2.23-5.65-6.56-5.61-19.99.2-39.99.27-59.99,0-15.89-.21-29.3-10.8-33.61-25.9-4.24-14.85,1.66-30.81,14.75-39.32,2.76-1.79,5.87-3.18,8.99-4.24,3.11-1.05,6.44-1.46,10.31-2.28Zm118.43,48.07c38.16,0,76.32,0,114.49-.01,1.99,0,4.03.04,5.97-.34,6.34-1.25,10.19-6.33,9.75-12.54-.41-5.76-5.06-10.18-11.25-10.69-15.67-1.31-23.95-10.28-23.97-26.13-.04-22.33.08-44.66-.04-66.99-.13-24.23-7.65-45.82-23.7-64.17-13-14.86-29.2-24.6-48.3-29.44-3.92-.99-5.52-2.7-5.21-6.87.37-4.8.25-9.67-.03-14.49-.56-9.74-8.17-16.95-17.58-16.92-9.37.03-16.95,7.32-17.48,17.05-.25,4.65-.43,9.36,0,13.99.43,4.65-1.66,6.33-5.79,7.5-44.39,12.63-71.35,48.34-71.45,94.46-.05,21.83.02,43.66-.04,65.49,0,2.98-.03,6.06-.76,8.91-2.66,10.32-11.17,16.73-22.83,17.58-6.78.5-11.46,5.07-11.62,11.35-.16,6.37,4.19,11.28,10.87,12.11,1.81.23,3.66.15,5.49.15,37.83,0,75.66,0,113.49,0Zm-28.6,24.11c.69,14.95,14.84,26.74,30.48,26.05,14.07-.61,27.42-13.38,26.85-26.05h-57.33Z"/>
  </g>
</svg>