<?xml version="1.0" encoding="UTF-8"?>
<svg fill="currentColor" xmlns="http://www.w3.org/2000/svg" viewBox="0 0 65.1 65.09">
  <g>
    <g>
      <path d="m0,32.16c.32-.49.75-.66,1.34-.65,1.46.04,2.92,0,4.38.01.74,0,1.16.39,1.15,1.05-.02.62-.43.98-1.15.98-1.46,0-2.92-.02-4.38.01-.59.02-1.02-.16-1.34-.65v-.76Z"/>
      <path d="m32.17,65.09c-.51-.33-.66-.8-.65-1.4.04-1.44,0-2.88.01-4.32,0-.74.4-1.16,1.05-1.15.61.02.98.43.98,1.15,0,1.44-.02,2.88.01,4.32.01.6-.13,1.07-.65,1.4h-.76Z"/>
      <path d="m32.56,10.3c12.27,0,22.24,9.95,22.24,22.17,0,12.4-9.92,22.32-22.29,22.32-12.34,0-22.22-9.97-22.21-22.4.01-12.18,10.01-22.09,22.26-22.09Zm0,2.04c-11.1-.02-20.21,9.08-20.22,20.19,0,11.18,9.06,20.2,20.32,20.21,10.99.01,20.08-9.12,20.09-20.19.02-11.1-9.07-20.2-20.2-20.22Z"/>
      <path d="m20.35,9.6c-.28.27-.51.64-.85.79-.47.21-.92,0-1.19-.46-.59-1-1.17-2.01-1.75-3.01-.23-.4-.48-.8-.68-1.21-.27-.54-.09-1.1.39-1.37.49-.28,1.06-.16,1.38.37.83,1.4,1.64,2.81,2.44,4.22.09.16.11.36.16.53.03.05.07.1.1.14Z"/>
      <path d="m49.33,5.36c-.04.1-.1.32-.21.52-.74,1.3-1.49,2.6-2.25,3.9-.37.64-.95.85-1.48.56-.56-.3-.69-.91-.3-1.59.77-1.34,1.54-2.67,2.32-4,.27-.46.67-.65,1.18-.51.47.14.74.47.73,1.12Z"/>
      <path d="m16.95,60.89c-.91,0-1.45-.77-1.09-1.43.8-1.49,1.66-2.94,2.53-4.39.28-.47.91-.55,1.35-.25.46.31.65.77.38,1.27-.82,1.48-1.66,2.94-2.54,4.38-.14.23-.5.34-.62.42Z"/>
      <path d="m49.47,59.99c-.27.28-.49.64-.82.82-.41.22-.88.07-1.12-.33-.88-1.47-1.74-2.94-2.57-4.44-.25-.46-.06-.93.38-1.21.47-.3,1.02-.29,1.3.18.92,1.49,1.77,3.02,2.64,4.54.05.08.03.21.04.31.04.04.09.09.13.13Z"/>
      <path d="m10.46,19.02c-.02.95-.77,1.45-1.45,1.09-1.47-.79-2.91-1.64-4.35-2.5-.49-.3-.58-.87-.31-1.34.27-.47.82-.68,1.32-.4,1.46.81,2.91,1.64,4.34,2.51.25.15.37.52.45.64Z"/>
      <path d="m60.89,48.11c0,.92-.77,1.46-1.43,1.11-1.48-.8-2.94-1.65-4.39-2.52-.46-.28-.56-.9-.3-1.34.26-.46.83-.67,1.31-.4,1.46.8,2.9,1.63,4.33,2.5.25.15.38.51.48.65Z"/>
      <path d="m60.89,16.99c-.12.15-.29.52-.58.7-1.33.82-2.69,1.59-4.05,2.36-.6.34-1.19.17-1.48-.35-.28-.5-.12-1.08.44-1.41,1.35-.8,2.7-1.58,4.06-2.35.76-.43,1.61.04,1.61,1.06Z"/>
      <path d="m10.43,46.13c-.11.14-.28.5-.57.68-1.33.81-2.69,1.59-4.05,2.35-.56.31-1.14.15-1.43-.35-.3-.51-.16-1.07.41-1.41,1.36-.81,2.73-1.61,4.12-2.37.74-.41,1.53.07,1.52,1.11Z"/>
      <path d="m31.53,3.43c0-.78,0-1.56,0-2.35,0-.66.4-1.07.99-1.08.62-.02,1.04.41,1.04,1.09,0,1.56,0,3.13,0,4.69,0,.66-.39,1.06-.99,1.08-.63.01-1.03-.4-1.04-1.09-.01-.78,0-1.56,0-2.35Z"/>
      <path d="m61.6,33.56c-.76,0-1.52,0-2.28,0-.69,0-1.1-.41-1.08-1.04.01-.6.41-.98,1.08-.98,1.57,0,3.13,0,4.7,0,.69,0,1.1.42,1.09,1.04-.01.59-.43.98-1.08.99-.8.01-1.61,0-2.41,0Z"/>
      <path d="m17.95,32.15c.12-6.6,4.16-12.34,10.34-14.53.31-.11.77-.11,1.05.04.43.23.27.69.14,1.09-2.58,8.11,2.09,16.38,9.58,19.09,2.05.74,4.17,1.04,6.36.85.51-.04,1.15-.33,1.52.27.38.62-.15,1.08-.44,1.54-3.35,5.3-9.71,8.05-15.85,6.89-6.31-1.19-11.21-6.07-12.36-12.35-.18-.95-.24-1.93-.35-2.89Z"/>
    </g>
  </g>
</svg>